PathFileType	4	(X/Y/Z)	RBDS021\RBDS021runT45.trc
DataRate	CameraRate	NumFrames	NumMarkers	Units	OrigDataRate	OrigDataStartFrame	OrigNumFrames
150.000000	150.000000	4	33	mm	150.000000	562	4500
Frame#	Time	L.ASIS			L.Heel.Bottom			L.Heel.Lateral			L.Heel.Top			L.Iliac.Crest			L.MT1			L.MT5			L.PSIS			L.Shank.Bottom.Lateral			L.Shank.Bottom.Medial			L.Shank.Top.Lateral			L.Shank.Top.Medial			L.Thigh.Bottom.Lateral			L.Thigh.Bottom.Medial			L.Thigh.Top.Lateral			L.Thigh.Top.Medial			R.ASIS			R.ASY			R.Heel.Bottom			R.Heel.Lateral			R.Heel.Top			R.Iliac.Crest			R.MT1			R.MT5			R.PSIS			R.Shank.Bottom.Lateral			R.Shank.Bottom.Medial			R.Shank.Top.Lateral			R.Shank.Top.Medial			R.Thigh.Bottom.Lateral			R.Thigh.Bottom.Medial			R.Thigh.Top.Lateral			R.Thigh.Top.Medial			
		X1	Y1	Z1	X2	Y2	Z2	X3	Y3	Z3	X4	Y4	Z4	X5	Y5	Z5	X6	Y6	Z6	X7	Y7	Z7	X8	Y8	Z8	X9	Y9	Z9	X10	Y10	Z10	X11	Y11	Z11	X12	Y12	Z12	X13	Y13	Z13	X14	Y14	Z14	X15	Y15	Z15	X16	Y16	Z16	X17	Y17	Z17	X18	Y18	Z18	X19	Y19	Z19	X20	Y20	Z20	X21	Y21	Z21	X22	Y22	Z22	X23	Y23	Z23	X24	Y24	Z24	X25	Y25	Z25	X26	Y26	Z26	X27	Y27	Z27	X28	Y28	Z28	X29	Y29	Z29	X30	Y30	Z30	X31	Y31	Z31	X32	Y32	Z32	X33	Y33	Z33	

563	3.746666666666667	2223.725632784237	989.6907246090619	951.7538982204993	2302.926502162089	122.0999532893113	1031.021374748585	2320.745167872924	135.5893638186988	977.8376460381276	2312.974771851655	167.3812438937195	1021.102165437815	2137.617836996227	1079.718099358432	907.9157352653019	2520.128334766597	125.8664965994965	1017.343131629754	2464.699768969208	106.8167434588388	918.0257935824311	2045.907043667942	1032.679387860453	1029.444511464583	2366.469345863697	260.9968828082057	940.0906987727719	2333.649211083477	268.3661510122464	984.2392657240954	2361.775446173849	339.3490355920252	922.6863110779794	2329.470734667913	347.0432130963333	965.095310768632	2325.389558686743	693.9174267911008	889.4268489900853	2273.569787481112	656.1742561373308	919.1528135972591	2253.162183156413	774.690215775561	870.8327484982782	2202.838074909059	738.1377735753089	898.2256803607577	2229.02749917424	960.8666735957016	1161.421597345296	1629.377894567793	164.9745637016221	1121.506311984451	1530.396094026253	310.7939887478092	1052.190267677943	1535.873794707492	294.7206201105332	1105.551067661421	1570.08020899475	320.5080302685643	1071.997599701871	2215.486643070483	1033.950761521586	1195.829671067477	1625.35642280487	118.9473556346106	1065.156026379576	1565.898213809169	142.5735935040039	1156.691717235945	2060.525242237532	1034.679815133636	1108.707376280525	1635.031826121337	342.1637080802699	1147.452533739247	1627.022964575773	360.7994110416009	1100.220385652401	1682.115940327898	410.6829476968153	1164.459227130926	1666.940433436708	428.8417952319902	1116.785084628632	1966.565156439541	682.3812823669202	1202.204825487224	1918.951415907003	719.9373098158733	1160.764805543611	2017.687318037085	777.4556066465957	1223.111617153353	1974.947571148836	812.0356839857972	1179.944567976186	
564	3.753333333333333	2223.599335502366	989.3630772171649	951.7491756718091	2328.845627622376	111.3062563872554	1030.76397296854	2346.865622949106	124.9009120102809	977.7044176964721	2336.137762340412	157.0035006931754	1020.22831293385	2138.659294121574	1080.235431353155	908.657407846361	2545.801306692975	129.3224055331373	1020.990207117827	2493.710168588915	104.2076607421497	921.0507416052859	2046.976749539715	1033.566895557875	1029.598207906291	2383.448997220774	253.6424487475937	939.6482542921539	2350.357260447208	259.1029383593946	983.8333129215357	2373.460144387225	331.2393589704354	921.6063489553173	2340.872526468562	337.0789654871783	964.1189589665906	2320.240511258352	688.0601162577257	888.0093130747211	2268.619070414456	652.0274087370436	919.8629593062535	2249.276901464679	770.110104609772	869.8695004256444	2199.017784224858	735.2437902112918	899.4347440076911	2230.65301326903	962.4220049394968	1160.719556098818	1612.798081507574	181.3802369424173	1118.76414892323	1520.338903192023	331.3096567925541	1050.551855312234	1524.734276492125	314.4360652250986	1103.718525235589	1560.119914094983	339.1605544997265	1070.522493219622	2217.278668110619	1037.043104434678	1194.488905778613	1607.846311587918	135.4120129097745	1062.472937486273	1548.51612545705	160.6203968281668	1153.552911123484	2061.863538672726	1037.17065079141	1108.936988793909	1626.214469644112	356.9240728894483	1146.357419152466	1619.021625770274	376.5582747958275	1099.450775354982	1676.487090579998	422.7434725572639	1164.065410720753	1662.223749449904	442.231686546351	1116.72700150155	1969.557348229486	683.9629049031879	1203.987284015221	1920.877772291682	721.9499679309015	1164.4280614274	2021.078679544781	778.7440831775119	1225.05709890507	1977.252837980431	813.786267798536	1183.735628542793	
565	3.76	2223.025270404528	988.6744607545814	951.3769623825071	2351.66110177703	102.3974680961391	1030.754529813368	2370.006639847329	115.7449403854523	977.7811436511769	2356.53942548028	148.2283096123591	1019.455990805057	2139.199393172171	1079.930802325677	908.9122060405343	2567.767217696206	132.7859549131971	1024.46225135023	2519.134575312008	101.7975694238557	924.1949347825991	2047.707436819144	1033.942575289755	1029.570331515895	2398.103797928011	246.9402453496868	939.3050333513218	2364.779578761447	250.6732915292097	983.4871005356501	2383.175453263923	323.5867616078073	920.7575576706342	2350.352437765804	327.752382460346	963.3184478422604	2314.618868291279	681.8289005595459	886.5110252629172	2263.22911009533	647.6495782161212	920.5953260875314	2245.06111754377	765.2177707676373	868.6796663769989	2194.907023868971	732.1390908957953	900.4198738530221	2232.169836493368	963.8594607275113	1159.811536986202	1597.016668949105	198.5025685657784	1115.291357668273	1511.689086513959	352.4252944261004	1048.36997179096	1514.813355250134	334.6740767366053	1101.321742370247	1551.394585971507	358.317498763394	1068.560846902769	2218.160746720447	1040.184031523391	1193.281283110974	1591.334716645289	152.9805541529506	1058.871370770358	1531.924956600486	179.6102462941601	1149.56776165863	2062.737499585617	1038.959123674265	1108.950426059821	1618.650312601343	371.9899014370351	1144.798684566859	1612.533670973537	392.6914276750355	1098.231379006617	1672.341054720766	434.6289328985883	1163.416915757126	1659.277103674316	455.5586003558673	1116.409473215474	1973.739421616439	684.1119087798872	1206.180716183615	1923.642852868101	722.1181156783354	1168.580896126972	2025.037472014874	778.9419919775858	1227.149011222723	1979.740921280264	814.052884478294	1187.833567017849	
566	3.766666666666667	2222.078304896721	987.6957585800968	950.7062973093365	2370.919664811023	95.19895059981447	1031.296169260019	2389.588056492759	107.9231430071506	978.3289201142095	2373.759034235697	140.9129109537974	1019.045478695876	2139.293534745943	1078.833366984258	908.7159151799182	2585.800575992863	135.7626467441198	1027.521479822195	2540.356096480682	99.17837223450859	927.3654832631659	2048.13894953006	1033.814050349592	1029.433742722006	2410.057011740499	240.7620867999092	939.1844819192818	2376.610303928266	242.9909948448055	983.3978665280001	2390.63938036076	316.3627419977954	920.2855166707051	2357.69510952403	319.0734728110045	962.9116611463832	2308.711312710568	675.4860191849181	885.0180407487148	2257.559046632377	643.2207163149097	921.3018725827261	2240.662195267415	760.2417312905527	867.3574446335853	2190.642165559751	728.975105493798	901.1632632254992	2233.604009522874	965.1759895840698	1158.775033017399	1582.367918322672	216.1506784731886	1111.358978769195	1504.913499370593	374.0731386738378	1045.882434613934	1506.585527929328	355.400034050713	1098.609441192844	1544.405053226458	377.8756039591569	1066.355364334161	2218.260093386381	1043.263696897971	1192.270175703353	1576.030222428933	171.4161985897687	1054.612083833848	1516.440554396832	199.4314579681809	1145.003864015818	2063.239225860347	1040.000413862241	1108.816730593389	1612.638053853061	387.2401787162659	1142.962705979798	1607.845606584853	408.9731037172771	1096.713677170488	1669.838946498107	446.2886190523274	1162.621275683194	1658.235780783118	468.6592686159943	1115.915049280477	1978.880657860593	682.9531865654195	1208.637208342732	1927.167221829549	720.5780603451254	1172.875999054813	2029.392755708529	778.1537031441071	1229.237317092616	1982.390571595552	812.9469570910185	1191.895938616504	
